# xmcd
#
# Track frame offsets: 
#        150
#        20063
#        34228
#        57473
#        72968
#        88078
#        103623
#        120089
#        133115
#        149734
#        165140
#        187120
#        201851
#        217221
#        232321
#        256364
#        273740
#        291145
#        303397
#        324836
#
# Disc length: 4573 seconds
#
# Revision: 0
# Processed by: cddbd v1.5.2PL0 Copyright (c) Steve Scherf et al.
# Submitted via: ExactAudioCopy v1.0b1
#
DISCID=3c11db14
DTITLE=Various Artist - CD Pool - Hits (2010-12)
DYEAR=2010
DGENRE=Pop
TTITLE0=Rihanna feat. Drake - What's My Name
TTITLE1=Ellie Goulding - Your Song
TTITLE2=Black Eyed Peas - The Time (Dirty Bit)
TTITLE3=Olly Murs - Thinking Of Me
TTITLE4=Flo Rida - Turn Around (5,4,3,2,1)
TTITLE5=Kylie Minogue - Better Than Today
TTITLE6=Far East Movement feat. Cataracs and DEV - Like A G6
TTITLE7=N-Dubz - Girls
TTITLE8=Robyn - Indestructible
TTITLE9=My Chemical Romance - Na Na Na (Explicit)
TTITLE10=Take That - The Flood
TTITLE11=Jessie J - Do It Like A Dude
TTITLE12=Pink - Raise Your Glass
TTITLE13=Gorillaz feat. Daley - Doncamatic
TTITLE14=Tinchy Stryder feat. Chipmunk, Devlin, Giggs, Professor Green
TTITLE14=and Tinie Tempah - Game Over (Explicit)
TTITLE15=Plan B - Love Goes Down
TTITLE16=Westlife - Safe
TTITLE17=Duffy - Well Well Well
TTITLE18=Florence and The Machine - Heavy In Your Arms
TTITLE19=Coldplay - Christmas Lights
EXTD=
EXTT0=
EXTT1=
EXTT2=
EXTT3=
EXTT4=
EXTT5=
EXTT6=
EXTT7=
EXTT8=
EXTT9=
EXTT10=
EXTT11=
EXTT12=
EXTT13=
EXTT14=
EXTT15=
EXTT16=
EXTT17=
EXTT18=
EXTT19=
PLAYORDER=
